<?xml version="1.0" encoding="UTF-8" standalone="no"?>
<!-- Created with Inkscape (http://www.inkscape.org/) -->

<svg
   width="464.81195mm"
   height="61.078419mm"
   viewBox="0 0 464.81195 61.078419"
   version="1.1"
   id="svg1"
   xml:space="preserve"
   xmlns="http://www.w3.org/2000/svg"
   xmlns:svg="http://www.w3.org/2000/svg"><defs
     id="defs1" /><g
     id="layer1"
     transform="translate(634.36403,-100.31606)"><g
       id="path1"><path
         style="color:#000000;fill:#ed0000;-inkscape-stroke:none"
         d="m -621.56209,160.48902 c -3.5811,-1.188 -6.23171,-3.28063 -7.88263,-6.22324 -0.5593,-0.99689 -0.8347,-1.67783 -1.2402,-3.06644 -0.478,-1.6369 -0.39421,-1.51696 -1.09743,-1.57079 -0.66752,-0.0511 -1.12672,-0.22395 -1.467,-0.55221 -0.4121,-0.39753 -0.48561,-0.58428 -0.5629,-1.42995 -0.0989,-1.08186 -0.0432,-9.0041 0.0656,-9.34136 0.11244,-0.34838 0.4389,-0.77397 0.7533,-0.98203 0.24719,-0.16358 0.35546,-0.18355 1.30614,-0.24086 0.58911,-0.0355 14.4319,-0.0783 32.06637,-0.0991 l 31.02976,-0.0366 0.41583,0.3761 c 0.25399,0.22973 0.45925,0.48464 0.52741,0.65497 0.22749,0.56855 0.26288,1.56651 0.21995,6.20194 l -0.0415,4.47642 -0.32348,0.29216 c -0.69516,0.62785 -0.75061,0.64985 -1.71352,0.67986 l -0.86408,0.0269 -0.25201,0.95876 c -0.69386,2.63978 -1.82701,4.6644 -3.60663,6.44401 -1.67306,1.67306 -3.89701,2.95874 -6.12958,3.54353 -0.58192,0.15242 -0.84473,0.17475 -2.71299,0.23049 -1.13775,0.0339 -9.98887,0.0619 -19.66913,0.062 l -17.60049,3.4e-4 z m 39.1009,-3.65028 c 1.2133,-0.12971 1.74587,-0.26283 2.47559,-0.61878 1.81147,-0.88363 3.03253,-1.8788 3.97338,-3.23833 0.6126,-0.88521 1.60343,-3.04436 1.46203,-3.18594 -0.11043,-0.11057 -6.16789,-0.14166 -29.01354,-0.14891 l -23.37465,-0.007 0.0893,0.46843 c 0.10079,0.52898 0.4012,1.29012 0.78416,1.98682 1.01989,1.85542 2.73854,3.36353 4.78628,4.19991 1.0745,0.43888 1.60155,0.54692 2.93827,0.60235 2.00374,0.0831 35.05931,0.0295 35.87923,-0.0581 z m 11.07916,-11.82186 c 0.0242,-0.34147 0.0441,-1.4097 0.0441,-2.37387 v -1.75302 l -24.77294,0.004 c -25.89829,0.004 -33.56757,0.048 -33.71191,0.19208 -0.11161,0.1114 -0.14074,1.20072 -0.0814,3.04241 l 0.0487,1.5091 h 29.2147 29.21471 z m -41.80372,-9.73269 c -1.56481,-0.23728 -2.3182,-0.46124 -3.38193,-1.00536 -0.84428,-0.43186 -1.5507,-0.93379 -2.64452,-1.87901 -0.42963,-0.37127 -0.98315,-0.79504 -1.23005,-0.94171 -0.94952,-0.56411 -1.94737,-0.83802 -3.05284,-0.83802 -1.45547,0 -2.69289,0.46133 -3.96774,1.47923 -0.26112,0.2085 -0.6579,0.47732 -0.88172,0.5974 -0.34702,0.18616 -0.47721,0.21844 -0.88414,0.21921 -0.79477,0.001 -1.41419,-0.38627 -1.8103,-1.13328 -0.12029,-0.22686 -0.15209,-0.39911 -0.15302,-0.82896 -10e-4,-0.49967 0.0157,-0.56675 0.21237,-0.84781 0.3231,-0.46181 1.34922,-1.42619 1.93601,-1.81954 1.0476,-0.70223 2.2642,-1.21551 3.5138,-1.48245 0.83574,-0.17853 3.10724,-0.17566 3.96774,0.005 1.88185,0.39511 3.14601,1.06275 5.24992,2.77261 0.90794,0.73789 1.70175,1.23562 2.32508,1.45785 0.42353,0.151 0.63895,0.18114 1.47205,0.206 2.09746,0.0626 3.04755,-0.30008 4.95874,-1.89272 1.44838,-1.20698 2.47952,-1.8181 3.82183,-2.26509 1.04476,-0.3479 1.81107,-0.46509 3.02845,-0.46313 2.68087,0.004 4.73752,0.79954 6.91685,2.6745 1.07938,0.92864 2.11456,1.57439 2.8528,1.7796 0.49863,0.13861 1.76972,0.19724 2.64643,0.12207 0.54813,-0.047 0.8312,-0.10968 1.20556,-0.26697 0.6125,-0.25735 1.64055,-0.93956 2.35512,-1.56286 1.13127,-0.98677 2.45827,-1.7512 3.83809,-2.21096 0.98137,-0.32699 1.65324,-0.40002 3.30982,-0.35977 1.20251,0.0292 1.48242,0.0573 2.03827,0.20407 1.97946,0.52287 4.54177,2.15183 5.05594,3.21425 0.17611,0.3639 0.20946,1.07985 0.0699,1.50011 -0.1373,0.41338 -0.49352,0.83961 -0.9015,1.07871 -0.24211,0.14188 -0.42316,0.18746 -0.84074,0.21163 -0.65684,0.038 -0.89731,-0.0674 -1.99317,-0.87396 -1.39272,-1.02503 -2.34453,-1.36711 -3.79818,-1.36505 -1.67903,0.002 -2.74949,0.45373 -4.37468,1.84458 -1.58049,1.35259 -3.13732,2.15426 -4.96372,2.55603 -0.7047,0.15501 -3.16483,0.17711 -3.81957,0.0343 -1.7286,-0.37703 -3.48052,-1.29197 -5.01902,-2.6212 -0.88055,-0.76077 -1.75767,-1.34111 -2.40317,-1.59004 -1.54101,-0.59428 -3.15263,-0.52623 -4.65345,0.19648 -0.6327,0.30467 -1.08981,0.63105 -2.03188,1.45076 -1.691,1.47137 -3.38225,2.30439 -5.25641,2.58902 -0.57861,0.0879 -2.26889,0.12181 -2.71299,0.0545 z m -10.95367,-9.99591 c -3.0847,-0.0287 -5.61899,-0.0799 -5.77928,-0.11667 -0.50848,-0.11671 -0.96366,-0.52594 -1.14243,-1.0271 -0.24572,-0.68884 -0.16839,-2.51393 0.17821,-4.20578 0.73905,-3.60756 2.52576,-6.87897 5.34881,-9.79349 4.48988,-4.63536 11.18434,-7.82868 18.92735,-9.02853 1.65211,-0.25601 3.41239,-0.33362 6.54508,-0.28857 3.77044,0.0542 4.9344,0.15974 7.32506,0.66411 5.32002,1.12239 9.83225,3.06305 13.42927,5.77579 1.55026,1.16914 3.43792,2.96461 4.65059,4.42345 2.02356,2.43435 3.38345,5.23717 3.99473,8.2334 0.27664,1.35596 0.36244,2.17472 0.32996,3.14854 -0.0251,0.75286 -0.0464,0.86678 -0.23923,1.27869 -0.11642,0.24871 -0.28313,0.4983 -0.37047,0.55465 -0.2497,0.1611 -0.85896,0.24124 -2.43093,0.31975 -1.77235,0.0885 -42.56114,0.13814 -50.76672,0.0618 z m 49.61371,-4.19223 c 0,-0.72774 -0.48989,-2.17326 -1.28659,-3.79637 -0.97649,-1.98941 -1.57681,-2.81615 -3.28751,-4.52749 -1.32771,-1.3282 -2.35612,-2.18899 -3.56486,-2.98383 -4.23872,-2.78729 -9.15027,-4.41368 -14.92141,-4.94102 -5.47265,-0.50007 -11.02159,0.2665 -15.90488,2.19721 -5.98981,2.36819 -10.30524,6.08688 -12.49057,10.76335 -0.52091,1.11471 -1.04044,2.83884 -1.04044,3.45283 v 0.1636 h 26.24813 26.24813 z m -26.63098,-5.33146 c -0.29565,-0.12864 -0.73772,-0.54152 -0.83735,-0.78206 -0.0508,-0.12262 -0.0734,-0.41385 -0.0581,-0.75002 l 0.025,-0.54956 0.37625,-0.36156 c 0.65284,-0.62737 1.36586,-0.67485 2.06991,-0.13784 0.45147,0.34435 0.62965,0.84867 0.53137,1.50402 -0.057,0.38039 -0.45415,0.85536 -0.8764,1.04824 -0.32251,0.14731 -0.92582,0.16142 -1.23066,0.0288 z m -13.00799,-1.42719 c -0.14672,-0.0523 -0.42119,-0.24947 -0.60993,-0.43821 l -0.34316,-0.34316 -0.0247,-0.54455 c -0.0295,-0.64909 0.0421,-0.85586 0.4122,-1.19019 0.35299,-0.31891 0.6443,-0.43535 1.08456,-0.43352 0.46421,0.002 0.83208,0.17442 1.17985,0.55322 0.23102,0.25164 0.28698,0.36779 0.32543,0.67551 0.0817,0.65379 -0.0864,1.1101 -0.53507,1.45228 -0.46554,0.35509 -0.98395,0.4486 -1.48915,0.26862 z m 26.18031,0 c -0.14673,-0.0523 -0.42142,-0.24968 -0.61043,-0.43867 l -0.34364,-0.34363 -0.0235,-0.56637 c -0.0278,-0.67 0.0493,-0.86514 0.48248,-1.22007 0.3705,-0.3036 0.58258,-0.38274 1.02066,-0.38089 0.45776,0.002 0.82743,0.17655 1.17479,0.55489 0.22389,0.24387 0.29018,0.37574 0.32835,0.65326 0.0904,0.65734 -0.0785,1.12125 -0.53515,1.46952 -0.46998,0.35848 -0.98661,0.45255 -1.49352,0.27196 z"
         id="path2" /><path
         style="color:#000000;fill:#ed0000;-inkscape-stroke:none"
         d="m -600.05469,100.32813 c -3.14363,-0.0452 -4.9388,0.033 -6.6289,0.29492 -7.83257,1.21372 -14.62615,4.44249 -19.20899,9.17383 -2.87978,2.97309 -4.72155,6.33646 -5.48047,10.04101 -0.17892,0.87339 -0.28708,1.77443 -0.32031,2.55859 -0.0332,0.78417 -0.0133,1.42435 0.16211,1.91602 0.24007,0.673 0.80655,1.18654 1.5,1.3457 0.14764,0.0339 0.15707,0.022 0.25391,0.0274 0.0968,0.005 0.22273,0.0103 0.3789,0.0156 0.31235,0.0106 0.74078,0.0207 1.26172,0.0312 0.91292,0.0184 2.17824,0.0351 3.49805,0.0488 v 0.002 l 0.49414,0.006 c 2.73455,0.0254 11.18835,0.0188 18.49023,0.0195 l 0.45703,-1 c -7.5291,-2.2e-4 -16.14769,0.006 -18.9375,-0.0195 -1.54085,-0.0143 -2.94396,-0.0357 -3.98046,-0.0566 -0.51826,-0.0105 -0.9457,-0.021 -1.25,-0.0312 -0.15216,-0.005 -0.27294,-0.009 -0.35743,-0.0137 -0.0845,-0.005 -0.19155,-0.0286 -0.084,-0.004 -0.32351,-0.0742 -0.66573,-0.37771 -0.7832,-0.70703 -0.0703,-0.19717 -0.13613,-0.81356 -0.10547,-1.53711 0.0307,-0.72355 0.13506,-1.58193 0.30273,-2.40039 0.71918,-3.51056 2.45049,-6.69093 5.2168,-9.54687 4.39691,-4.53938 10.99305,-7.69489 18.64648,-8.88086 1.61411,-0.25012 3.3392,-0.3281 6.46094,-0.2832 3.76259,0.0541 4.85615,0.15378 7.22852,0.65429 5.26198,1.11015 9.70241,3.02482 13.23047,5.68555 1.50956,1.13845 3.38982,2.92597 4.56835,4.34375 1.97335,2.37395 3.29422,5.09991 3.88868,8.01367 0.2728,1.33717 0.3515,2.09608 0.32031,3.03125 -0.0248,0.74512 -0.008,0.69133 -0.19141,1.08399 -0.0466,0.0995 -0.10883,0.20636 -0.16015,0.2832 -0.0513,0.0768 -0.14644,0.13807 -0.0293,0.0625 -0.002,0.001 -0.62408,0.16225 -2.18555,0.24023 -0.35,0.0175 -3.30125,0.0427 -7.50195,0.0586 -4.2007,0.0159 -9.72146,0.0262 -15.44336,0.0332 -3.51944,0.004 -5.13527,-0.01 -8.54687,-0.01 l -0.42383,1 c 3.55943,1.6e-4 5.27763,0.0143 8.9707,0.01 5.72253,-0.007 11.24517,-0.0173 15.44727,-0.0332 4.20209,-0.0159 7.01265,-0.0318 7.54882,-0.0586 1.58247,-0.079 2.18018,-0.0794 2.67774,-0.40039 0.20448,-0.13192 0.23539,-0.22343 0.31836,-0.34765 0.083,-0.12423 0.16259,-0.26488 0.23242,-0.41407 0.20184,-0.43116 0.26175,-0.71401 0.28711,-1.47461 0.0338,-1.01247 -0.0594,-1.89088 -0.33984,-3.26562 -0.62811,-3.0787 -2.02585,-5.95838 -4.09961,-8.45313 -1.24681,-1.4999 -3.14343,-3.30212 -4.73438,-4.50195 -3.66598,-2.76475 -8.24891,-4.7306 -13.62695,-5.86523 -2.40895,-0.50823 -3.64359,-0.62147 -7.42188,-0.67578 z m 2.51367,4.02148 c -5.54925,-0.50707 -11.17117,0.26878 -16.13281,2.23047 -6.07987,2.4038 -10.51059,6.20254 -12.75976,11.01562 -0.27533,0.58917 -0.54089,1.31439 -0.74219,1.98243 -0.2013,0.66803 -0.3457,1.23362 -0.3457,1.68164 v 0.66406 h 23.64257 l 0.45704,-1 h -23.02735 c 0.0402,-0.26741 0.0873,-0.58143 0.23047,-1.05664 0.18869,-0.62621 0.44387,-1.32212 0.68945,-1.84766 2.12149,-4.53984 6.32293,-8.17719 12.22266,-10.50976 4.80493,-1.89973 10.27975,-2.65714 15.67578,-2.16407 5.70396,0.5212 10.52624,2.12241 14.69141,4.86133 1.17905,0.77532 2.17352,1.60468 3.48633,2.91797 1.69512,1.69576 2.22649,2.4287 3.1914,4.39453 0.74322,1.51415 1.13647,2.83757 1.17774,3.4043 h -25.68946 -2.46679 l -0.42383,1 h 2.89062 26.74805 v -0.82813 c 0,-0.95212 -0.52518,-2.35988 -1.33789,-4.01562 -0.98806,-2.01299 -1.65654,-2.93519 -3.38281,-4.66211 -1.34262,-1.34311 -2.40611,-2.23252 -3.64453,-3.04688 -4.31227,-2.83565 -9.31209,-4.488 -15.1504,-5.02148 z m -16.10351,6.53906 c -0.52934,-0.002 -1.01227,0.19244 -1.42188,0.5625 -0.21119,0.19079 -0.39625,0.40658 -0.49218,0.6836 -0.0959,0.27701 -0.0997,0.55316 -0.084,0.89843 l 0.0332,0.73828 0.48046,0.48047 c 0.23701,0.23701 0.46155,0.43711 0.79688,0.55664 0.65863,0.23465 1.38478,0.0962 1.95898,-0.34179 0.57122,-0.43564 0.82423,-1.14618 0.72852,-1.91211 -0.0439,-0.35159 -0.19747,-0.6727 -0.45313,-0.95117 -0.41544,-0.45252 -0.95999,-0.71232 -1.54687,-0.71485 z m -0.6875,3.91992 0.0801,0.0293 h 0.0879 z m 26.875,-3.91992 c -0.49898,-0.002 -0.92994,0.15825 -1.33984,0.49414 -0.24009,0.19672 -0.4487,0.40554 -0.5625,0.69336 -0.11381,0.28782 -0.11634,0.57746 -0.10157,0.9336 l 0.0312,0.76171 0.48047,0.48047 c 0.2372,0.23718 0.46129,0.43703 0.79688,0.55664 0.65978,0.23506 1.38791,0.0944 1.96484,-0.3457 0.57962,-0.44205 0.83274,-1.16348 0.72656,-1.93555 -0.0459,-0.33375 -0.20371,-0.64807 -0.45508,-0.92187 -0.41506,-0.45209 -0.95733,-0.71425 -1.54101,-0.7168 z m -0.69531,3.91992 0.082,0.0293 h 0.0859 z m -25.4961,-2.91992 c 0.34154,10e-4 0.53436,0.0855 0.81446,0.39063 0.20638,0.22481 0.16429,0.13458 0.19726,0.39843 0.0677,0.54165 -0.0157,0.74543 -0.3418,0.99415 -0.35687,0.2722 -0.66581,0.32062 -1.01757,0.19531 0.0419,0.0149 -0.28531,-0.1818 -0.42578,-0.32227 l -0.20508,-0.20508 -0.0156,-0.35156 c -0.0138,-0.30381 0.004,-0.45317 0.0293,-0.52539 0.025,-0.0722 0.0598,-0.12794 0.21875,-0.27148 0.29637,-0.26777 0.39491,-0.3042 0.74609,-0.30274 z m 26.1875,0 c 0.33184,10e-4 0.52894,0.088 0.8086,0.39258 0.19641,0.21394 0.17073,0.16153 0.20117,0.38281 0.0746,0.54261 -0.0101,0.74942 -0.34375,1.00391 -0.36303,0.2769 -0.66745,0.32534 -1.02149,0.19922 0.0421,0.015 -0.28496,-0.18147 -0.42578,-0.32227 l -0.20508,-0.20508 -0.0156,-0.37109 c -0.013,-0.31386 0.009,-0.45745 0.0352,-0.52344 0.0261,-0.066 0.0725,-0.13085 0.26562,-0.28906 0.3311,-0.27131 0.32399,-0.26917 0.70117,-0.26758 z m -13.20703,0.42774 c -0.48681,0.0324 -0.94263,0.27219 -1.33008,0.64453 l -0.51953,0.5 -0.0332,0.74804 c -0.008,0.18581 -0.008,0.3612 0.004,0.51758 0.0121,0.15638 0.0229,0.28087 0.0918,0.44727 0.11116,0.26838 0.27492,0.43004 0.46485,0.60742 0.18992,0.17738 0.39109,0.33538 0.63476,0.44141 0.025,0.0109 0.0511,0.002 0.0762,0.0117 l 0.40039,-0.875 -0.37304,0.88085 c 0.23545,0.082 0.47029,0.12096 0.71484,0.11524 0.28001,-0.007 0.55542,-0.044 0.81836,-0.16406 0.59665,-0.27255 1.06566,-0.77301 1.16406,-1.42969 0.11701,-0.78021 -0.13445,-1.52792 -0.72265,-1.97656 -0.42239,-0.32218 -0.90381,-0.50117 -1.39063,-0.46875 z m -0.6875,3.90625 -0.1543,-0.10547 0.0664,0.0684 z m 0.75391,-2.90821 c 0.20891,-0.0139 0.43513,0.0528 0.71679,0.26758 0.31474,0.24006 0.4194,0.50076 0.33985,1.03125 -0.0156,0.1041 -0.34004,0.55475 -0.58789,0.66797 -0.0596,0.0272 -0.24925,0.07 -0.42774,0.0742 -0.17848,0.004 -0.36066,-0.0332 -0.39648,-0.0488 -0.052,-0.0226 -0.21968,-0.13451 -0.34961,-0.25586 -0.12993,-0.12135 -0.23614,-0.2876 -0.22461,-0.25976 0.0181,0.0438 -0.01,-0.0387 -0.0176,-0.14258 -0.008,-0.10394 -0.0108,-0.24222 -0.004,-0.39258 l 0.0156,-0.35156 0.23242,-0.22266 c 0.26539,-0.25504 0.49421,-0.35327 0.70313,-0.36719 z m -0.10352,12.81055 c -1.2498,-0.002 -2.10514,0.12786 -3.1875,0.48828 -0.82631,0.27516 -1.59411,0.90265 -2.35351,1.39063 l -0.64844,1.52929 c 1.21626,-0.97288 2.1529,-1.5826 3.31836,-1.9707 1.00716,-0.33538 1.68419,-0.43941 2.86914,-0.4375 2.58233,0.004 4.47736,0.7336 6.5918,2.55273 1.11232,0.95698 2.16211,1.63742 3.04492,1.88282 0.67483,0.18759 1.88252,0.21924 2.82226,0.13867 0.57123,-0.049 0.94382,-0.13091 1.35743,-0.30469 0.71922,-0.30219 1.73283,-0.98583 2.49023,-1.64648 1.0817,-0.94354 2.35463,-1.67568 3.66797,-2.11328 0.93762,-0.31242 1.50006,-0.3738 3.13867,-0.33399 1.19661,0.0291 1.39281,0.0473 1.92383,0.1875 0.91727,0.2423 2.02195,0.76099 2.93555,1.3418 0.91359,0.58081 1.63801,1.27722 1.79687,1.60547 0.0749,0.1547 0.12345,0.88854 0.0449,1.125 -0.0882,0.26543 -0.38581,0.63245 -0.67969,0.80468 -0.1886,0.11053 -0.22553,0.12198 -0.61523,0.14454 -0.2983,0.0172 -0.39906,0.01 -0.60352,-0.0801 -0.20445,-0.0897 -0.52221,-0.29817 -1.06445,-0.69727 -1.43753,-1.05801 -2.5633,-1.46506 -4.0957,-1.46289 -1.76846,0.002 -3.03226,0.53825 -4.69922,1.96484 -1.53141,1.31059 -2.99777,2.06268 -4.74609,2.44727 -0.238,0.0524 -1.057,0.11028 -1.82618,0.11719 -0.76918,0.007 -1.58456,-0.0396 -1.77929,-0.082 -1.63277,-0.35613 -3.31653,-1.23105 -4.79883,-2.51172 -0.90966,-0.78592 -1.80374,-1.38965 -2.55078,-1.67774 -1.66216,-0.641 -3.43495,-0.5652 -5.05078,0.21289 -0.67365,0.32439 -1.18967,0.6943 -2.14258,1.52344 -1.10277,0.95954 -2.20449,1.53224 -3.33594,1.94727 l -0.50781,1.19531 c 1.57302,-0.41945 3.06497,-1.14003 4.5,-2.38867 0.93123,-0.81028 1.33012,-1.092 1.92187,-1.37696 1.38581,-0.66732 2.836,-0.72919 4.25586,-0.18164 0.54396,0.20978 1.40442,0.76634 2.25586,1.50196 1.5947,1.37778 3.41581,2.33449 5.24024,2.73242 0.46001,0.10034 1.2012,0.11266 2.00195,0.10547 0.80074,-0.007 1.56454,-0.038 2.03125,-0.14063 1.90447,-0.41894 3.55207,-1.26946 5.18164,-2.66406 1.58342,-1.3551 2.45923,-1.72272 4.04883,-1.72461 h 0.002 c 1.3749,-0.002 2.1521,0.27554 3.5,1.26758 0.55362,0.40747 0.90386,0.6534 1.25781,0.80859 0.35396,0.1552 0.70201,0.18286 1.06055,0.16211 0.44546,-0.0258 0.76883,-0.10606 1.06445,-0.27929 0.52208,-0.30597 0.93661,-0.79024 1.12305,-1.35157 0.2006,-0.60406 0.1836,-1.30386 -0.0937,-1.87695 -0.35531,-0.73417 -1.16919,-1.38368 -2.16016,-2.01367 -0.99096,-0.63 -2.15656,-1.18427 -3.21875,-1.46485 -0.58067,-0.15332 -0.94393,-0.19136 -2.15234,-0.2207 -1.67454,-0.0407 -2.45535,0.0432 -3.48047,0.38477 -1.4463,0.48191 -2.82893,1.27859 -4.00976,2.30859 -0.67174,0.58594 -1.71298,1.26601 -2.21875,1.47852 -0.33511,0.1408 -0.52966,0.18545 -1.05469,0.23046 -0.81368,0.0698 -2.14827,-0.0158 -2.4707,-0.10546 -0.59367,-0.16503 -1.61372,-0.77744 -2.66016,-1.67774 -2.24422,-1.93078 -4.46279,-2.79077 -7.24219,-2.79492 z m -24.92969,0.18945 c -1.31281,0.28045 -2.58478,0.81747 -3.6875,1.55664 -0.67681,0.4537 -1.64568,1.34593 -2.0664,1.94727 -0.10524,0.15039 -0.20621,0.30951 -0.25586,0.50781 -0.0496,0.19831 -0.0474,0.37346 -0.0469,0.62891 9.9e-4,0.45422 0.0587,0.77532 0.21094,1.0625 0.46367,0.87442 1.29443,1.39964 2.25195,1.39844 0.43317,-8.2e-4 0.74939,-0.0799 1.1211,-0.2793 0.28083,-0.15067 0.66667,-0.41464 0.95703,-0.64649 1.20913,-0.96542 2.30644,-1.37109 3.65625,-1.37109 1.02288,0 1.9185,0.24769 2.79687,0.76953 0.16544,0.0983 0.74691,0.53325 1.15821,0.88867 1.10814,0.9576 1.86069,1.49537 2.74414,1.94727 1.05136,0.53779 1.92286,0.77618 3.38086,1.00781 l 0.043,0.0293 0.11132,0.0176 c 0.32728,0.0496 0.82868,0.0464 1.39063,0.0351 0.56195,-0.0113 1.11936,-0.0365 1.4707,-0.0898 0.0867,-0.0132 0.16397,-0.0627 0.25,-0.0781 l 0.55274,-1.20898 c -0.31934,0.0864 -0.62056,0.24862 -0.95117,0.29883 -0.22727,0.0345 -0.80488,0.0673 -1.34375,0.0781 -0.53888,0.0108 -1.10388,-0.008 -1.22071,-0.0254 -1.54222,-0.23385 -2.20048,-0.42921 -3.22851,-0.95508 -0.80511,-0.41182 -1.46543,-0.87966 -2.54493,-1.8125 -0.44796,-0.38711 -0.97436,-0.79907 -1.30273,-0.99414 -1.02066,-0.60637 -2.11858,-0.9082 -3.30664,-0.9082 -1.56112,0 -2.94068,0.51947 -4.28125,1.58984 -0.23188,0.18516 -0.63788,0.45739 -0.80469,0.54688 -0.32142,0.17243 -0.27127,0.15952 -0.64844,0.16016 -0.63201,7.9e-4 -1.04059,-0.24759 -1.36914,-0.86719 -0.0883,-0.16654 -0.0929,-0.19023 -0.0937,-0.59571 -4.9e-4,-0.24421 0.008,-0.35435 0.0156,-0.38476 0.008,-0.0304 0.014,-0.0451 0.10547,-0.17578 0.22548,-0.32228 1.30792,-1.35841 1.80469,-1.69141 0.99248,-0.66528 2.15346,-1.15477 3.33984,-1.4082 0.65366,-0.13964 3.07334,-0.13867 3.76172,0.006 1.81506,0.38109 2.95984,0.98171 5.03711,2.66992 0.93323,0.75844 1.75336,1.28457 2.47265,1.54102 0.45422,0.16194 0.78243,0.21118 1.625,0.23632 2.03364,0.0607 3.23989,-0.41818 4.99414,-1.81836 l 0.72657,-1.58984 c -0.35549,0.25493 -0.67317,0.30154 -1.06836,0.63086 -1.87726,1.56437 -2.58765,1.83809 -4.62305,1.77734 -0.82362,-0.0246 -0.92552,-0.0377 -1.31836,-0.17773 -0.52737,-0.18802 -1.29509,-0.65767 -2.17773,-1.375 -2.13055,-1.73151 -3.51427,-2.46392 -5.46289,-2.87305 -1.03262,-0.21679 -3.15797,-0.22328 -4.17579,-0.006 z m 57.23633,10.13086 -31.22265,0.0371 c -4.02324,0.005 -6.71623,0.0129 -10.23243,0.0195 l -0.42578,1.00196 c 3.63545,-0.007 6.46744,-0.0165 10.65821,-0.0215 l 30.83789,-0.0351 0.27343,0.24609 c 0.21692,0.19619 0.39499,0.46208 0.39844,0.4707 0.15917,0.3978 0.2265,1.3795 0.1836,6.01172 l -0.0391,4.25586 -0.16211,0.14453 c -0.34482,0.31144 -0.49089,0.42525 -0.60546,0.4707 -0.11458,0.0455 -0.30916,0.0671 -0.78711,0.082 l -1.23829,0.0371 -0.3457,1.32031 c -0.67581,2.57112 -1.75598,4.49622 -3.47656,6.21679 -1.60697,1.60697 -3.76677,2.85417 -5.9043,3.41407 -0.5578,0.1461 -0.73393,0.15918 -2.59961,0.21484 -1.06878,0.0318 -9.97501,0.0624 -19.65429,0.0625 h -17.25782 l -0.42382,1 h 17.68164 c 9.68121,-10e-5 18.47687,-0.0265 19.68359,-0.0625 1.87084,-0.0558 2.21818,-0.0893 2.82422,-0.24805 2.3276,-0.60968 4.61827,-1.93467 6.35742,-3.67382 1.83865,-1.83865 3.02442,-3.9615 3.73633,-6.66993 l 0.15625,-0.59765 0.49219,-0.0156 c 0.48495,-0.0151 0.79733,-0.0204 1.125,-0.15039 0.32766,-0.13 0.55787,-0.34179 0.9082,-0.6582 l 0.48633,-0.43945 0.043,-4.69532 c 0.043,-4.63863 0.0399,-5.65327 -0.25586,-6.39257 -0.13287,-0.33204 -0.36519,-0.57658 -0.65625,-0.83985 z m -42.14258,0.0586 c -3.90643,0.008 -8.56131,0.0143 -11.50585,0.0234 -2.86957,0.009 -5.20637,0.018 -6.86329,0.0273 -0.82845,0.005 -1.48837,0.009 -1.95898,0.0137 -0.47061,0.005 -0.71835,0.008 -0.84766,0.0156 -0.47768,0.0288 -0.74881,0.0455 -0.97851,0.0879 -0.2297,0.0424 -0.43042,0.13922 -0.57422,0.23438 -0.44325,0.29333 -0.79036,0.74177 -0.95313,1.24609 -0.0497,0.1542 -0.0358,0.17267 -0.043,0.25977 -0.007,0.0871 -0.0135,0.19523 -0.0195,0.32422 -0.0121,0.25797 -0.0217,0.60012 -0.0312,1.00586 -0.0191,0.81148 -0.0334,1.87014 -0.041,2.95117 -0.008,1.08103 -0.009,2.1842 -0.002,3.08789 0.007,0.90369 0.0187,1.58036 0.0488,1.91016 0.0397,0.43382 0.0765,0.73447 0.18946,1.02148 0.11298,0.28701 0.30187,0.50704 0.52539,0.72266 0.43892,0.42342 1.03971,0.63509 1.77539,0.6914 0.15783,0.0121 0.23213,0.0187 0.27539,0.0234 0.0178,0.0383 0.14895,0.39529 0.38086,1.18945 0.41024,1.40487 0.71063,2.14938 1.2832,3.16993 1.71317,3.05355 4.48445,5.23309 8.16211,6.45312 l 0.41797,-0.91406 -0.10352,-0.0352 c -3.48453,-1.15596 -6.01484,-3.16053 -7.60351,-5.99219 -0.54603,-0.97323 -0.79651,-1.59053 -1.19727,-2.96289 -0.23772,-0.81405 -0.29074,-1.17555 -0.53515,-1.52539 -0.12221,-0.17492 -0.35426,-0.31568 -0.53321,-0.35547 -0.17894,-0.0398 -0.30823,-0.0344 -0.4707,-0.0469 -0.59936,-0.0459 -0.91657,-0.18096 -1.1582,-0.41406 -0.18859,-0.18192 -0.24294,-0.25393 -0.28907,-0.3711 -0.0461,-0.11716 -0.0854,-0.33229 -0.12304,-0.74414 -0.0193,-0.21113 -0.038,-0.93158 -0.0449,-1.82812 -0.007,-0.89655 -0.006,-1.9973 0.002,-3.07422 0.008,-1.07692 0.0221,-2.13099 0.041,-2.9336 0.009,-0.4013 0.0198,-0.73836 0.0312,-0.98242 0.006,-0.12203 0.0121,-0.22253 0.0176,-0.28906 0.006,-0.0665 0.0322,-0.1472 -0.004,-0.0352 0.0621,-0.19243 0.36913,-0.59595 0.55468,-0.71875 0.10339,-0.0684 0.0792,-0.0631 0.20313,-0.0859 0.1239,-0.0229 0.38442,-0.0438 0.85742,-0.0723 0.018,-0.001 0.32881,-0.009 0.79688,-0.0137 0.46806,-0.005 1.12543,-0.009 1.95312,-0.0137 1.65537,-0.009 3.99225,-0.0185 6.86133,-0.0273 2.82684,-0.009 7.32714,-0.0141 11.04687,-0.0215 z m 39.70313,3.88671 -25.27344,0.004 c -7.52393,0.001 -10.69646,0.016 -15.40625,0.0254 l -0.42383,1 c 4.76676,-0.01 8.09778,-0.0242 15.83008,-0.0254 l 24.27344,-0.004 v 1.25196 c 0,0.95729 -0.0226,2.05244 -0.043,2.33984 l -0.0117,0.1543 h -28.74804 -12.87891 l -0.42383,1 h 13.30274 29.67968 l 0.0781,-1.08399 c 0.028,-0.39553 0.0449,-1.4391 0.0449,-2.41015 z m -41.49414,0.0293 c -3.05759,0.007 -8.2857,0.006 -10.29492,0.0176 -2.58748,0.0148 -4.37007,0.034 -5.51953,0.0586 -0.57474,0.0123 -0.99037,0.0254 -1.27539,0.041 -0.14252,0.008 -0.25227,0.0169 -0.3418,0.0273 -0.0448,0.005 -0.0829,0.009 -0.13086,0.0195 -0.048,0.0106 -0.082,-0.0504 -0.28125,0.14844 -0.15429,0.154 -0.14947,0.23713 -0.16992,0.31641 -0.0205,0.0793 -0.0307,0.1554 -0.041,0.24219 -0.0207,0.17356 -0.0339,0.38731 -0.041,0.65429 -0.0143,0.53398 -0.006,1.27257 0.0234,2.19922 l 0.0645,1.99219 h 15.39648 l 0.45703,-1 h -14.88476 l -0.0332,-1.02344 c -0.0295,-0.91504 -0.0368,-1.64167 -0.0234,-2.14062 0.005,-0.1925 0.0152,-0.31782 0.0254,-0.43555 0.0154,-9.2e-4 0.0186,-0.001 0.0351,-0.002 0.26318,-0.0144 0.67297,-0.0269 1.24219,-0.0391 1.13844,-0.0243 2.91874,-0.0438 5.50391,-0.0586 1.91759,-0.0109 6.96006,-0.009 9.83203,-0.0156 z m -15.21094,8.71875 0.20313,1.0625 c 0.11847,0.6218 0.43209,1.40008 0.83593,2.13477 1.07902,1.96298 2.88526,3.54297 5.03711,4.42187 0.54081,0.22089 1.0654,0.21793 1.52539,0.31446 l 0.41993,-0.91993 c -0.46356,-0.0786 -0.97486,-0.0779 -1.56836,-0.32031 -1.94363,-0.79385 -3.57635,-2.23066 -4.53711,-3.97851 -0.33707,-0.61322 -0.5768,-1.26893 -0.67969,-1.7129 l 9.5332,0.002 0.45703,-1 z m 12.32227,0.004 -0.42383,1 12.08008,0.004 c 11.4226,0.004 18.64947,0.0127 23.03125,0.0352 2.19089,0.0113 3.67033,0.0265 4.60547,0.0449 0.34548,0.007 0.54304,0.0156 0.74609,0.0234 -0.0742,0.1931 -0.1556,0.39785 -0.27148,0.65039 -0.29774,0.64881 -0.70088,1.40697 -0.97071,1.79688 -0.89062,1.28695 -2.02316,2.21662 -3.78125,3.07421 -0.68771,0.33546 -1.11587,0.44281 -2.30859,0.57032 0.0356,-0.004 -0.18751,0.009 -0.47266,0.0137 -0.28514,0.005 -0.68146,0.0108 -1.17383,0.0156 -0.98473,0.01 -2.35227,0.0174 -3.97461,0.0254 -3.24466,0.0161 -7.51426,0.0282 -11.82226,0.0352 -4.308,0.007 -8.65416,0.009 -12.04688,0.004 -3.38222,-0.005 -5.84383,-0.0189 -6.29687,-0.0371 l -0.39453,0.92968 c 0.13105,0.008 0.18794,0.0623 0.33398,0.0684 0.56003,0.0232 2.9611,0.0338 6.35547,0.0391 3.39437,0.005 7.74194,0.003 12.05078,-0.004 4.30884,-0.007 8.5797,-0.0191 11.82617,-0.0352 1.62324,-0.008 2.99077,-0.0157 3.97852,-0.0254 0.49388,-0.005 0.89152,-0.0104 1.18164,-0.0156 0.29012,-0.005 0.42242,-0.005 0.56055,-0.0195 l 0.5,-0.0527 -0.008,-0.0703 c 0.84372,-0.12073 1.52234,-0.23661 2.1504,-0.54297 1.86484,-0.90966 3.17298,-1.97219 4.16406,-3.4043 0.34277,-0.4953 0.74116,-1.2598 1.05664,-1.94726 0.15774,-0.34373 0.29345,-0.66267 0.38476,-0.92383 0.0457,-0.13058 0.0806,-0.24376 0.10352,-0.35937 0.0115,-0.0578 0.0208,-0.11522 0.0195,-0.19727 -10e-4,-0.082 0.0125,-0.22359 -0.16016,-0.39648 -4.3e-4,-4.4e-4 -0.0483,-0.0426 -0.0684,-0.0566 -0.0201,-0.0141 -0.0375,-0.025 -0.0527,-0.0332 -0.0305,-0.0164 -0.0533,-0.0244 -0.0723,-0.0312 -0.0379,-0.0137 -0.0602,-0.0188 -0.082,-0.0234 -0.0436,-0.009 -0.0779,-0.0134 -0.11523,-0.0176 -0.0747,-0.008 -0.16164,-0.0155 -0.27734,-0.0215 -0.23142,-0.012 -0.57016,-0.0219 -1.04297,-0.0312 -0.94562,-0.0187 -2.42812,-0.0337 -4.6211,-0.0449 -4.38596,-0.0225 -11.61213,-0.0315 -23.03515,-0.0352 z"
         id="path3" /></g><path
       d="m -805.89518,468.58128 v -21.34112 h 9.25259 q 2.43489,0 4.09635,0.6875 1.66146,0.6875 2.50651,1.89062 0.84505,1.1888 0.84505,2.75 0,1.23177 -0.51563,2.23437 -0.51562,0.98828 -1.44661,1.64714 -0.91666,0.64453 -2.16276,0.88802 v 0.0286 q 1.375,0.043 2.46354,0.71615 1.10286,0.65885 1.73307,1.80468 0.64453,1.14583 0.64453,2.64974 0,1.74739 -0.87369,3.12239 -0.8737,1.36068 -2.52083,2.14844 -1.64714,0.77343 -3.96745,0.77343 z m 5.78645,-4.46874 h 3.15104 q 1.08854,0 1.73307,-0.57292 0.64453,-0.57291 0.64453,-1.53255 0,-0.64453 -0.30078,-1.11718 -0.28646,-0.47266 -0.81641,-0.73047 -0.52995,-0.25781 -1.26041,-0.25781 h -3.15104 z m 0,-8.42187 h 2.79296 q 0.65886,0 1.14584,-0.24349 0.48697,-0.24349 0.74479,-0.6875 0.27213,-0.45833 0.27213,-1.05989 0,-0.90234 -0.58724,-1.44661 -0.58724,-0.54427 -1.57552,-0.54427 h -2.79296 z m 22.47263,13.23436 q -2.79297,0 -4.85547,-0.97395 -2.06249,-0.98828 -3.20832,-2.76432 -1.13151,-1.79037 -1.13151,-4.19661 v -13.74999 h 5.78645 v 13.26301 q 0,0.98828 0.44401,1.76171 0.44401,0.75912 1.20312,1.20313 0.77344,0.44401 1.76172,0.44401 1.0026,0 1.76171,-0.42969 0.77344,-0.44401 1.20313,-1.20312 0.44401,-0.77344 0.44401,-1.77604 v -13.26301 h 5.78645 v 13.74999 q 0,2.40624 -1.14583,4.19661 -1.13151,1.77604 -3.19401,2.76432 -2.0625,0.97395 -4.85546,0.97395 z m 11.48696,-0.34375 v -21.34112 h 9.0664 q 2.54948,0 4.41145,0.91667 1.86198,0.90234 2.86458,2.57812 1.01693,1.66146 1.01693,3.95312 0,2.22005 -1.0599,3.83854 -1.04557,1.61848 -2.97916,2.5065 -1.91927,0.8737 -4.569,0.8737 h -5.08463 v -4.61197 h 4.95572 q 0.90234,0 1.54687,-0.32943 0.65886,-0.32943 1.01693,-0.91666 0.35807,-0.58724 0.35807,-1.36068 0,-0.78776 -0.35807,-1.36068 -0.35807,-0.58723 -1.01693,-0.91666 -0.64453,-0.32943 -1.54687,-0.32943 h -2.66406 v 16.49998 z m 11.8164,0 -4.64062,-9.68228 h 6.08723 l 4.7552,9.68228 z m 17.47393,0.34375 q -3.17968,0 -5.54296,-1.34635 -2.34895,-1.34635 -3.65234,-3.80989 -1.28906,-2.47786 -1.28906,-5.84374 0,-3.56641 1.375,-6.02995 1.375,-2.46353 3.72395,-3.72395 2.36328,-1.27474 5.27083,-1.27474 1.94792,0 3.66666,0.54427 1.71875,0.54427 3.03646,1.57552 1.33203,1.01693 2.14843,2.43489 0.81641,1.40365 0.95964,3.15104 h -6.07291 q -0.11458,-0.60156 -0.38672,-1.07422 -0.27213,-0.47265 -0.71614,-0.80208 -0.42969,-0.32942 -1.03125,-0.5013 -0.58724,-0.17187 -1.36068,-0.17187 -1.5039,0 -2.53515,0.6875 -1.01693,0.67317 -1.54688,1.97656 -0.51562,1.30338 -0.51562,3.20833 0,1.89062 0.52995,3.194 0.52994,1.30339 1.57552,1.97656 1.04557,0.67318 2.57812,0.67318 1.24609,0 2.09114,-0.3724 0.85938,-0.37239 1.28906,-1.03125 0.44401,-0.67317 0.44401,-1.56119 l 1.23177,0.11458 h -5.09895 v -4.2539 h 9.68228 v 3.07942 q 0,2.77865 -1.23177,4.84114 -1.23177,2.0625 -3.45182,3.20833 -2.20572,1.13151 -5.17057,1.13151 z m 20.99738,0 q -2.79297,0 -4.85547,-0.97395 -2.06249,-0.98828 -3.20833,-2.76432 -1.13151,-1.79037 -1.13151,-4.19661 v -13.74999 h 5.78646 v 13.26301 q 0,0.98828 0.44401,1.76171 0.44401,0.75912 1.20312,1.20313 0.77344,0.44401 1.76172,0.44401 1.0026,0 1.76171,-0.42969 0.77344,-0.44401 1.20313,-1.20312 0.44401,-0.77344 0.44401,-1.77604 v -13.26301 h 5.78645 v 13.74999 q 0,2.40624 -1.14583,4.19661 -1.13151,1.77604 -3.19401,2.76432 -2.0625,0.97395 -4.85546,0.97395 z m 11.48696,-0.34375 v -21.34112 h 16.52863 v 5.04166 h -10.5703 v 3.20833 h 9.75389 v 4.86979 h -9.75389 v 3.17968 h 10.5703 v 5.04166 z m 18.53384,0 v -21.34112 h 9.06639 q 2.54948,0 4.41146,0.91667 1.86197,0.90234 2.86458,2.57812 1.01692,1.66146 1.01692,3.95312 0,2.22005 -1.05989,3.83854 -1.04557,1.61848 -2.97917,2.5065 -1.91926,0.8737 -4.569,0.8737 h -5.08463 v -4.61197 h 4.95572 q 0.90235,0 1.54688,-0.32943 0.65885,-0.32943 1.01692,-0.91666 0.35807,-0.58724 0.35807,-1.36068 0,-0.78776 -0.35807,-1.36068 -0.35807,-0.58723 -1.01692,-0.91666 -0.64453,-0.32943 -1.54688,-0.32943 h -2.66406 v 16.49998 z m 11.81639,0 -4.64062,-9.68228 h 6.08723 l 4.75521,9.68228 z m 13.09112,0 v -21.34112 h 8.90885 l 1.91927,6.67447 q 0.24348,0.85938 0.57291,2.10547 0.32943,1.23177 0.67318,2.59244 0.35807,1.36068 0.64453,2.60677 0.30078,1.23177 0.48698,2.09115 h -1.53255 q 0.18619,-0.85938 0.47265,-2.09115 0.30078,-1.24609 0.64453,-2.60677 0.34375,-1.36067 0.65886,-2.59244 0.32942,-1.24609 0.57291,-2.10547 l 1.89063,-6.67447 h 8.92316 v 21.34112 h -5.84374 v -8.24999 q 0,-0.73047 0.0286,-1.89062 0.043,-1.16016 0.0859,-2.53515 0.043,-1.375 0.0716,-2.77865 0.043,-1.41796 0.043,-2.64973 h 0.67317 q -0.30078,1.23177 -0.65885,2.63541 -0.35807,1.38932 -0.71615,2.76432 -0.34375,1.36068 -0.65885,2.52083 -0.3151,1.16016 -0.54427,1.93359 l -2.47786,8.24999 h -4.8125 l -2.52083,-8.24999 q -0.22916,-0.77343 -0.55859,-1.93359 -0.32943,-1.16015 -0.6875,-2.52083 -0.35807,-1.375 -0.73047,-2.76432 -0.35807,-1.40364 -0.67317,-2.63541 h 0.75911 q 0,1.23177 0.0286,2.64973 0.043,1.40365 0.0859,2.77865 0.043,1.37499 0.0716,2.53515 0.043,1.16015 0.043,1.89062 v 8.24999 z m 25.98175,0 7.16145,-21.34112 h 8.02082 l 7.23307,21.34112 h -6.70312 l -2.39192,-8.27863 q -0.77344,-2.69271 -1.50391,-5.3138 -0.73047,-2.63541 -1.41796,-5.47135 h 1.60416 q -0.71614,2.83594 -1.46094,5.47135 -0.74479,2.62109 -1.54687,5.3138 l -2.47786,8.27863 z m 5.34244,-3.50911 v -4.58333 h 11.74478 v 4.58333 z m 18.21874,3.50911 v -21.34112 h 6.07291 l 5.19921,8.3789 q 0.34375,0.54427 0.85937,1.48958 0.52995,0.93099 1.10287,2.00521 0.58723,1.07421 1.08854,2.01952 l -0.71615,1.66146 q -0.0716,-1.16015 -0.11458,-2.63541 -0.043,-1.48958 -0.0716,-2.86458 -0.0143,-1.38932 -0.0143,-2.23437 v -7.82031 h 5.95833 v 21.34112 h -6.07291 l -4.85547,-7.79165 q -0.42968,-0.70183 -1.07421,-1.79037 -0.63021,-1.10286 -1.36068,-2.44921 -0.71614,-1.34636 -1.44661,-2.75 l 1.17448,-0.34375 q 0.11458,1.5039 0.15755,2.95052 0.0573,1.44661 0.0573,2.59244 0.0143,1.14583 0.0143,1.79037 v 7.79165 z m 27.61454,-21.34112 v 21.34112 h -5.95832 v -21.34112 z m 1.14583,21.34112 7.16145,-21.34112 h 8.02082 l 7.23307,21.34112 h -6.70312 l -2.39192,-8.27863 q -0.77344,-2.69271 -1.50391,-5.3138 -0.73047,-2.63541 -1.41797,-5.47135 h 1.60417 q -0.71615,2.83594 -1.46094,5.47135 -0.74479,2.62109 -1.54687,5.3138 l -2.47786,8.27863 z m 5.34244,-3.50911 v -4.58333 h 11.74478 v 4.58333 z"
       id="text1"
       style="font-weight:900;font-size:29.3333px;line-height:1;font-family:Inter;-inkscape-font-specification:'Inter Heavy';letter-spacing:0px;white-space:pre;opacity:0.9264;fill:#521d16;stroke-width:10.156;stroke-linejoin:bevel;stroke-miterlimit:12"
       transform="matrix(1.5620889,0,0,1.5620889,705.55274,-584.44226)"
       aria-label="BURGUER MANIA" /></g></svg>
